# xmcd
#
# Track frame offsets:
#	150
#	11727
#	23481
#	41807
#	57288
#	72286
#	86891
#	103875
#	118415
#	134646
#	155644
#	171276
#	186053
#	200422
#	219742
#	240119
#	253107
#	276671
#	292836
#	315419
#
# Disc length: 4448 seconds
# Revision: 1
# Processed by: cddbd v1.5.2PL0 Copyright (c) Steve Scherf et al.
# Submitted via: dBpowerAMP V12.0
#
DISCID=31115e14
DTITLE=Martina McBride - The Essential Martina McBride
DYEAR=2012
DGENRE=Country
TTITLE0=The Time Has Come
TTITLE1=My Baby Loves Me
TTITLE2=Life #9
TTITLE3=Independence Day
TTITLE4=Heart Trouble
TTITLE5=Safe In The Arms Of Love
TTITLE6=Wild Angels
TTITLE7=Valentine [w/Jim Brickman]
TTITLE8=A Broken Wing
TTITLE9=Still Holding On [w/Clint Black]
TTITLE10=Happy Girl
TTITLE11=Wrong Again
TTITLE12='Til I Can Make It On My Own
TTITLE13=Chances Are [w/Bob Seger]
TTITLE14=Whatever You Say
TTITLE15=I Love You
TTITLE16=Love's the Only House
TTITLE17=It's My Time
TTITLE18=When God-Fearin' Women Get the Blues
TTITLE19=How Great Thou Art
EXTD=
EXTT0=
EXTT1=
EXTT2=
EXTT3=
EXTT4=
EXTT5=
EXTT6=
EXTT7=
EXTT8=
EXTT9=
EXTT10=
EXTT11=
EXTT12=
EXTT13=
EXTT14=
EXTT15=
EXTT16=
EXTT17=
EXTT18=
EXTT19=
PLAYORDER=
